<svg width="142" height="33" viewBox="0 0 142 33" fill="none" xmlns="http://www.w3.org/2000/svg">
<path d="M13.16 0.479999V0.839999H13.24C13.68 0.839999 14.04 0.879998 14.04 3.08V25.6C14.04 30.84 10.72 32.68 7.76 32.68C5.36 32.68 2.8 31.56 1.44 29.2C2.72 27.96 3.08 26.36 3.08 25.36C3.08 25.2 3.04 25 3.04 24.88C2.84 23.44 2.16 22.88 1.48 22.88C1.36 22.88 1.28 22.88 1.16 22.92C0.6 23.08 0.04 23.72 0.04 25.04V25.16C0.08 30.16 3.88 33 7.92 33C12 33 16.08 30.36 16.08 24.84V3.08C16.08 0.879998 16.44 0.839999 16.92 0.839999H16.96V0.479999H13.16ZM38.6809 25.84C38.0409 30.72 36.1209 32.64 32.8409 32.64H23.6809C23.2009 32.64 22.8809 32.56 22.8809 30.4V14.64H30.3209C33.6809 14.64 34.7609 16.64 34.7609 19.08H35.0809V9.88H34.7609C34.7609 12.32 33.6809 14.32 30.3209 14.32H22.8809V3.04C22.8809 0.96 23.2009 0.799999 23.6409 0.799999H32.5609C35.8009 0.799999 37.7209 2.64 38.2009 6.52L38.5209 6.48L37.9209 0.479999H19.9609V0.799999H20.0009C20.4809 0.799999 20.8409 0.839999 20.8409 3.04V30.4C20.8409 32.6 20.4809 32.64 20.0009 32.64H19.9609V33H38.2009L39.0009 25.88L38.6809 25.84ZM71.8472 0.479999V0.839999C72.2072 0.839999 72.4872 1.16 72.4872 1.68C72.4872 1.88 72.4472 2.08 72.3672 2.28L63.5272 29.88L58.5672 13.56L62.2472 2.12C62.6072 1.2 62.9672 0.839999 63.4072 0.839999V0.479999H61.2872V0.839999C61.6872 0.839999 61.9272 1.2 61.9272 1.72C61.9272 1.88 61.8872 2.08 61.8472 2.28L58.4072 13L55.2072 2.44C55.1272 2.12 55.0872 1.88 55.0872 1.68C55.0872 1.12 55.3272 0.839999 55.6872 0.839999V0.479999H51.8872V0.839999C52.2872 0.839999 52.7272 1.2 53.0472 2.36L57.3272 16.4L53.0072 29.88L44.6472 2.44C44.5672 2.16 44.5272 1.88 44.5272 1.68C44.5272 1.12 44.8072 0.839999 45.1672 0.839999V0.479999H41.3672V0.839999C41.7672 0.839999 42.1672 1.2 42.5272 2.36L51.8072 33H52.3672L57.4872 16.96L62.3672 33H62.8872L72.7672 2.12C73.1272 1.2 73.4872 0.839999 73.9672 0.839999V0.479999H71.8472ZM95.595 25.84C94.955 30.72 93.035 32.64 89.755 32.64H80.595C80.115 32.64 79.795 32.56 79.795 30.4V14.64H87.235C90.595 14.64 91.675 16.64 91.675 19.08H91.995V9.88H91.675C91.675 12.32 90.595 14.32 87.235 14.32H79.795V3.04C79.795 0.96 80.115 0.799999 80.555 0.799999H89.475C92.715 0.799999 94.635 2.64 95.115 6.52L95.435 6.48L94.835 0.479999H76.875V0.799999H76.915C77.395 0.799999 77.755 0.839999 77.755 3.04V30.4C77.755 32.6 77.395 32.64 76.915 32.64H76.875V33H95.115L95.915 25.88L95.595 25.84ZM117.626 25.88C117.026 30.76 115.066 32.68 111.826 32.68H102.626C102.186 32.68 101.826 32.56 101.826 30.44V3.08C101.826 0.879998 102.186 0.839999 102.666 0.839999H102.706V0.479999H98.9062V0.839999H98.9463C99.4663 0.839999 99.8263 0.879998 99.8263 3.08V30.44C99.8263 32.64 99.4663 32.68 98.9463 32.68H98.9062V33H117.186L117.986 25.92L117.626 25.88ZM123.803 6.76C123.803 2.08 128.243 0.479999 130.843 0.479999C133.723 0.479999 136.443 1.48 138.163 3.48C137.483 4.92 137.163 6.24 137.163 7.32C137.163 8.76 137.763 9.72 138.803 9.8H138.883C139.483 9.8 140.363 9.36 140.363 7.96C140.363 7.6 140.323 7.2 140.203 6.76C139.003 2.04 134.723 0.159998 130.923 0.159998C125.483 0.159998 122.003 3.48 122.003 7.48C122.003 17.76 139.283 16.32 139.283 26C139.283 31.8 134.123 32.64 131.443 32.64C128.283 32.64 124.883 31.08 123.563 29.28C124.403 27.8 124.763 26.36 124.763 25.24C124.763 24.04 124.363 23.2 123.683 23C123.563 22.96 123.403 22.96 123.283 22.96C122.443 22.96 121.803 23.68 121.763 25V25.32C121.763 30.48 127.363 33 131.363 33C137.603 33 141.003 29.12 141.003 24.96C141.003 14.64 123.803 16.12 123.803 6.76Z" fill="black"/>
</svg>
